# xmcd CD database file
#
# Track frame offsets:
#       150
#       17442
#       34926
#       54406
#       81203
#       90463
#       112907
#       129935
#       146680
#       158399
#
# Disc length: 2306 seconds
#
# Revision: 0
# Processed by: cddbd v1.5.2PL0 Copyright (c) Steve Scherf et al.
# Submitted via: jack 3.1.1
#
DISCID=6b09000a
DTITLE=The Chimney Boys - Morality Tales
DYEAR=2010
DGENRE=Folk
TTITLE0=A Call to Reason
TTITLE1=(All Roads Lead to) Mickleburgh Hill
TTITLE2=Jonathan Wild
TTITLE3=The Beach in Winter
TTITLE4=Another Minor Victory
TTITLE5=November
TTITLE6=Hannibal, Crossing the Alps
TTITLE7=All We Do is Talk
TTITLE8=Dreamland Margate
TTITLE9=An Unromantic Age
EXTD=
EXTT0=
EXTT1=
EXTT2=
EXTT3=
EXTT4=
EXTT5=
EXTT6=
EXTT7=
EXTT8=
EXTT9=
PLAYORDER=
